# xmcd
#
# Track frame offsets:
# 150
# 14885
# 27557
# 42045
# 56815
# 69552
# 83585
# 94085
# 104987
# 118902
# 130260
# 141577
# 153305
#
# Disc length: 2206 seconds
#
#
# Revision: 0
# Processed by: cddbd v1.5.1PL0 Copyright (c) Steve Scherf et al.
# Submitted via: FreeRIP 2.941 
#
DISCID=c3089c0d
DTITLE=BANDA CUISILLOS - BANDA CUISILLOS MUSICAL
DYEAR=1993
DGENRE=Country
TTITLE0=GÜIRO Y GUACHARACA
TTITLE1=EL O YO
TTITLE2=LAND OF THOUSAND DANCES
TTITLE3=CON AGUA HELADA NO
TTITLE4=ANDA BORRACHO EL BUEY
TTITLE5=EL CORRIDO DE JUAN MARTHA
TTITLE6=EN LA ESQUINA
TTITLE7=NO SE HA DADO CUENTA
TTITLE8=NO DEBES LLORAR
TTITLE9=CUMBIA SABROSA
TTITLE10=PA'QUE Y POR QUE
TTITLE11=SUPERMAN
TTITLE12=MAMBO LUPITA
EXTD=
EXTT0=
EXTT1=
EXTT2=
EXTT3=
EXTT4=
EXTT5=
EXTT6=
EXTT7=
EXTT8=
EXTT9=
EXTT10=
EXTT11=
EXTT12=
PLAYORDER=
